P2
100 100
255
185 191 248 155 218 236 174 180 180 210 194 183 207 209 210 203 162 
254 200 230 179 176 224 170 237 153 177 179 182 239 219 236 170 234 
203 215 210 203 228 255 213 206 197 203 176 153 240 158 180 212 225 
233 141 204 173 194 179 171 191 255 170 159 183 171 189 198 255 170 
188 213 197 198 161 189 206 234 149 185 213 182 174 239 209 215 231 
225 206 227 255 210 215 243 225 243 221 206 233 164 173 207 144 167 
191 179 159 219 234 138 188 221 165 167 188 221 224 165 212 219 177 
185 198 206 221 212 156 239 224 245 194 198 221 233 225 179 164 189 
195 248 209 185 209 203 216 204 206 185 180 218 165 207 186 180 159 
210 161 194 213 161 236 159 215 225 222 224 255 239 132 179 234 209 
128 209 192 176 252 255 204 212 164 203 155 201 189 210 222 207 182 
207 255 201 203 215 237 255 236 225 162 188 212 197 189 182 171 201 
231 176 212 207 198 203 215 245 168 168 176 234 195 219 182 237 219 
173 195 194 170 207 233 252 224 177 195 224 191 255 230 213 194 240 
186 195 191 168 222 195 231 203 201 201 215 197 164 198 189 219 231 
198 222 176 194 206 233 252 209 210 177 255 234 210 209 234 246 152 
177 146 162 218 236 209 219 255 203 213 207 188 141 236 188 215 182 
156 180 219 213 174 143 254 227 167 173 212 176 183 219 198 215 230 
227 210 191 255 225 255 147 150 212 186 156 180 201 198 189 189 173 
198 159 174 191 171 239 188 246 180 212 185 219 191 174 237 204 206 
228 120 221 183 200 150 209 219 174 233 173 242 243 201 197 215 164 
185 200 233 165 198 179 212 255 212 230 200 189 186 227 174 213 218 
228 203 183 171 180 209 191 218 227 156 149 206 182 255 231 173 203 
149 216 140 234 209 164 177 207 221 185 249 180 230 234 198 240 189 
182 227 168 194 224 180 209 200 182 186 203 150 183 191 194 230 198 
140 200 242 203 255 212 210 192 230 162 225 228 204 188 198 191 212 
135 173 186 189 221 222 159 195 162 255 224 216 192 225 176 170 218 
164 152 189 215 201 192 176 213 170 210 255 245 207 245 173 171 200 
159 255 173 170 174 179 141 185 177 245 168 249 155 191 222 183 177 
213 224 168 194 186 156 189 198 212 159 221 170 249 188 192 252 200 
189 222 171 206 252 212 191 197 171 203 204 204 231 222 183 210 200 
189 161 219 218 207 197 156 176 213 158 195 155 213 180 206 218 147 
174 192 185 155 255 186 180 129 179 219 141 156 197 236 177 245 209 
173 162 152 210 255 192 234 255 221 185 234 197 176 183 200 207 207 
153 210 212 224 233 231 216 188 206 189 224 210 188 197 216 168 192 
234 162 230 245 168 221 161 231 191 219 203 162 189 234 188 197 198 
149 212 182 255 255 164 207 158 203 218 222 192 138 210 230 221 224 
173 209 206 200 201 165 210 153 143 182 248 189 174 180 171 215 203 
215 227 207 189 197 176 191 171 182 212 201 210 228 198 198 174 210 
143 165 212 170 195 189 201 237 213 158 170 195 210 222 176 240 209 
144 207 191 192 200 230 183 206 255 198 186 251 213 140 161 215 189 
189 167 183 216 213 182 147 215 215 147 219 141 153 197 218 173 149 
195 204 171 237 218 200 206 182 162 222 197 180 222 243 231 255 171 
231 207 176 186 191 156 221 230 186 153 201 210 255 237 201 161 183 
209 183 221 156 218 228 186 255 224 152 164 219 215 201 153 167 192 
204 131 194 149 212 173 207 186 243 236 227 170 200 216 255 201 255 
162 194 255 158 191 158 162 207 243 191 171 209 189 197 176 204 192 
215 255 210 162 174 239 155 185 248 195 204 219 218 158 228 180 201 
198 192 200 252 177 204 218 189 179 195 183 228 173 195 159 230 180 
222 228 194 255 173 207 204 218 195 204 170 207 197 197 171 176 200 
225 191 236 201 198 168 191 179 171 191 132 240 153 245 213 188 210 
173 231 230 216 194 200 192 251 191 245 243 216 207 191 218 167 186 
225 167 192 242 209 249 180 218 203 173 185 215 188 182 188 210 191 
186 171 218 183 152 234 198 174 227 192 188 227 218 203 165 167 218 
161 219 234 213 234 219 167 194 188 212 185 203 183 240 206 255 185 
213 183 140 249 167 171 188 147 227 210 225 255 198 135 225 251 218 
194 161 189 227 179 165 150 215 195 192 188 243 159 222 170 200 204 
221 236 185 215 242 212 209 200 197 161 251 218 218 168 200 168 255 
218 204 239 186 242 192 201 221 213 221 156 180 221 171 221 194 221 
188 240 255 162 173 237 158 236 215 185 189 255 189 225 210 219 180 
168 189 159 210 218 198 213 203 222 228 146 201 210 227 255 254 210 
185 174 225 186 198 197 209 210 167 147 168 210 216 234 197 189 177 
197 186 230 152 179 198 218 204 210 156 215 186 224 209 200 192 212 
186 221 209 234 225 189 216 203 200 218 168 245 228 168 231 174 225 
129 227 203 183 192 189 197 174 230 195 183 155 198 189 219 233 230 
192 221 213 185 183 219 204 188 201 207 185 230 210 255 165 171 197 
255 188 168 195 146 180 207 201 197 236 201 198 192 162 153 195 188 
200 170 125 156 161 255 201 216 119 198 213 170 179 192 179 224 222 
183 206 204 212 255 207 201 227 206 200 186 242 225 165 231 177 188 
227 198 210 255 246 227 168 200 197 245 255 215 249 197 194 173 215 
228 191 191 221 216 215 198 206 171 219 180 219 227 231 194 170 240 
224 237 212 194 242 128 255 213 173 156 176 180 222 176 174 174 189 
243 204 245 195 137 245 176 185  96 186 197 228 167 206 174 251 179 
170 153 207 240 185 218 255 212 227 117 167 197 245 191 255 179 252 
189 183 164 233 201 218 168 188 170 210 240 218 239 192 189 168 209 
176 227 195 167 222 210 204 207 173 152 138 228 231 167 227 177 194 
101 177 255 197 201 192 183 215 203 213 173 213 150 243 204 231 186 
179 158 203 255 216 231 243 206 159 170 236 173 198 186 224 192 189 
189 183 161 230 177 153 198 185 185 195 245 227 179 209 147 212 194 
215 224 195 228 191 252 246 222 213 204 231 168 233 218 254 225 180 
200 203 201 197 233 140 212 168 218 248 180 167 156 216 237 204 179 
176 186 207 194 167 155 174 213 194 156 230 213 197 176 177 210 164 
230 200 179 237 216 225 255 209 218 237 218 206 228 228 177 168 197 
182 189 251 182 198 225 185 224 210 228 201 200 158 180 197 237 182 
186 189 173  74 176 180 170 158 240 206 215 239 222 146 242 204 176 
227 209 219 207 225 230 146 158 159 126 176 152 201 233 228 221 255 
176 210 194 164 204 197 215 218 189 230 192 147 197 212 239 194 150 
236 230 144 230 236 206 239 219 152 200 218 180 191 168 209 203 207 
230 204 213 218 242 176 171 182 200 167 186 225 173 224 162 197 201 
230 203 192 249 192 206 255 140 197 230 150 228 195  20  84   0  74 
 21  38  62  63  78   5  35 251 176 198 183 185 171 231 183 213 195 
206 206 128 212 168 219 230 179 173 189 225 228 179 198 164 216 164 
153 204 156 206 219 185 192 212 177 129 158 164 156 255 207 153 231 
180 185 189 210 159 213 233 206 141 216 216 215 255 192 186 224 218 
183 231 171 204 216 143 201 129 206 255 182 213 204 201 218 191 227 
144 189 180 200 161 177 186 195   3  90 111  24  26 102   8  98  69 
 57  54 128  54  81  95  72  69 246 191 188 194 204 230 206 218 191 
255 189 129 192 251 171 174 155 188 167 207 215 153 200 167 203 192 
213 204 191 212 207 206 185 167 201 146 201 209 191 168 185 204 164 
224 171 212 183 246 246 251 233 191 225 207 203 122 126 180 210 159 
209 149 182 221 182 198 192 159 240 239 179 158 174 170 203 219 129 
224 149 240 191 147  66  80  95 104  35  24  18  87  33  45  17  21 
 51  96  32  89  47  62  66 186 228 231 216 201 221 198 167 152 189 
177 141 233 179 206 189 177 224 222 203 224 194 156 153 168 195 227 
192 236 137 221 201 221 189 182 152 216 195 186 240 245 150 255 155 
191 236 255 215 197 194 221 234 162 126 192 176 191 213 177 207 183 
210 207 224 237 188 158 210 218 185 216 122 224 212 222 201 186 216 
219 179   0  17  78  14  54  39  38  11  56  57  27  53  21  32  89 
 32  57  90  15  17   2 182 203 242 189 219 213 143 212 188 159 173 
191 150 177 201 183 255 216 243 236 180 183 165 195 215 197 189 183 
189 200 210 207 158 191 203 255 161 162 195 176 195 171 189 234 231 
195 222 255 150 236 219 176 189 204 192 218 245 239 255 144 200 222 
213 186 255 194 180 222 236 188 209 206 212 168 230 212 177  65  66 
 45  92  42  44  18  45   0  96  77  38  33  57 108  42  69  62  41 
 33  48  98   3  17   2 159 231 210 134 135 176 170 236 198 213 249 
212 188 201 222 242 237 234 155 189 233 197 188 255 209 134 212 186 
188 255 170 135 203 162 225 198 224 215 228 168 216 183 255 204 206 
230 233 146 227 198 195 212 198 203 167 237 210 200 183 194 152 161 
215 216 206 180 219 194 204 210 180 206 230 179 159  84  36  62  81 
 66   8  65  33  57  89  54  47  50  56  71  99  44 111  29  65  48 
 44 123  53  12 206 171 114 183 219 222 206 189 173 227 219 158 185 
206 152 186 194 201 228 206 198 236 231 206 161 230 165 255 155 210 
203 188 206 231 167 218 191 230 150 173 197 218 210 167 225 170 165 
230 215 213 230 219 228 191 180 191 239 225 158 194 252 192 201 174 
218 215 224 234 168 239 156 168 219 182  60 108  51  39  18  47  32 
 47  33  48  23  17  33  45  23  20  87  41 114  48  54   0  54  47 
 59  59  83 198 204 225 230 176 197 216 198 165 255  45  36 104  56 
 44  53  12  54  80  24  68  83  23  29  75  66   0  57  59  44  35 
 90  68  30  68  74  24  99  17  39 164 213 140 132 215 182 182 192 
225 219 206 233 243 171 215 218 213 183 249 131 210 143 182 194 168 
162 230 171 156 168 234 203   0  74  12  45   0  44  59  26  80  77 
 62  81   0 105  93  53  51   5  59  56  41  51  54   0  63  71  99 
  3 104 221 195 231 176 174 161 180 165 222 224   5  72  81  56  26 
 12  29  21  99  20  42  11  44  24  57  59  53  44 108  80  69  54 
 20  53  42 105   3   5  51 191 218 234 255 221 134 167 209 177 204 
213 219 185 224 164 227 206 239 225 231 240 224 243 237 206 188 164 
201 252 218 189  63  27  84  59  89   0  39  68 102  74  75  74 131 
 71  72  36  26  48  51  39  15  95  36  68  93  89  15  71  41  72 
 68 212 123 255 191 174 192 161 209 182 156  65  53  57  15  68   0 
 83  44  84  47  48  48  23  29  32  69  42 102  77   9  96  62  23 
 51   3  81  36  15 198 132 209 158 215 207 189 189 230 204 138 176 
236 239 255 201 156 159 204 161 141 161 222 158 255 248 255 206 255 
174 156  74   5  20  53  38  92  86  60  87  17   0  74  80  38  50 
210  47  83  69 102  84  71 110 119 105  24  54 114  59  65  33 255 
146 213 162 218 189 200 212 161 200 227  50  71  38  39  96  18  66 
 80  18  68  30  41   0  56  69  36  20  71  57  57  17  32  15  92 
 54  69  72 192 233 194 159 204 222 249 198 200 204 182 207 179 203 
221 209 242 188 201 207 207 119 215 161 156 240 185 209 108 158 186 
 59  71  29  96  71  56  51  36  15  93   6  63 192 195 195 209 168 
197 117  39  47  39  81  24  18  59  44  47  63  53  90 224 156 171 
210 222 222 179 212 210 177 228 227  92  84  50  27  23  77  51  26 
 63  36  54  26  33  56  86  51  65 143   0  18  92  21  83  96  56 
 60 213 200 182 173 209 255 242 201 194 189 207 212 183 228 230 185 
243 201 165 216 227 245 156 158 186 210 200 227 188 192  96   6  66 
 66   0  65  98  21  63  86  75  87 228 188 248 201 243 185 233 219 
216  60  45  54  30  39  39   6   0  57  74  26  41 255 207 186 206 
180 209 170 153 255 222 255 167  75  45  57  63  38  60  68  33  45 
 35  57  68  30  11  17  47  20  92   0  86  68  62  60  80  96 188 
231 224 224 137 177 212 251 225 246 255 222 255 206 159 168 215 183 
248 237 203 221 177 233 186 234 191 222 236 161  36   9   9  39  24 
 36  33  39 132  39  20 176 221 237 156 152 222 237 225 239 207 195 
 81  57  86   0  33  42  71  53  47  72  53 159 197 218 192 167 209 
165 239 158 228 143 192 167  20  51  54  59  24 107  44  87  45  33 
 56  57  68  86  24  45  59  84  69  39  30  26  50 101 216 195 183 
203 191 204 224 222 188 219 252 233 192 200 123 224 186 179 225 246 
189 164 225 174 194 143 177 177 197 231  38  45  14  75  81  57   0 
 60  20  83 180 156 221 164 176 195 207 212 192 230 218 206 176  15 
 72  15   9  95  45  11  89  30  68 222 162 195 165 183 192 234 183 
155 210 227 200 179 218  75   9 117  44  71  51 116  18  57   5  62 
 45  57   6  69  74  56  42  99  75  39  41  84 240 189 201 194 242 
219 225 182 255 239 228 248 180 186 212 200 218 174 224 192 192 147 
234 236 206 215 200 246 224 173  53  50  33  42  32  41  60  38  21 
 59 216 143 141 134 165 245 222 171 200 210 137 248 249  54  72  72 
 29  63  87   5  66  21  92 194 216 147 203 255 204 191 236 180 234 
215 168 161 218 200  71 105  87  45  42   0  59  99  68  27  62  41 
 51  36  48  24  75  23  39  33  32  95 183 219 188 132 179 176 125 
216 194 176 165 192 140 134 171 224 218 234 228 171 222 195 200 200 
255 207 215 200 231 225  86  65  29  38   0  20  68  15  57  56 222 
171 231 233 173 201 248 188 209 189 153 186 204  45  68  71  72  32 
 68  77  56  83  38 191 246 206 173 153 218 222 233 164 143 209 255 
255 156 237 168  59  41  53  35  69  89  35 132  44  21   9  41  63 
  0  47 108  53 137  59  68   0 156 162 188 180 195 212 197 188 216 
194 188 255 182 255 203 218 182 230 200 207 197 183  98 225 167 222 
155 195 141  17   3  62  47 108   0  35   0  47  63 227 206 138 149 
222 182 168 179 192 221 182 216 239 180 209  11   0  75  92  77  78 
 23  77  39 110 192 255 132 228 188 200 188 194 204 218 204 165 165 
198 174 227  45  92  41  30  36  38  38  17  54  50  33  44  54  15 
 27   0  90  71  53  57 255 143 174 240 144 213 174 207 186 144 144 
207 203 189 204 195 221 203 176 195 177 243 248 213 218 200 228 246 
189 179  56  48  59  47   5  83  63  51  62  86 230 213 236 219 188 
222 182 191 248 198 207 182 213  68  60 107  75  86  36  56  78  77 
110 254 228 194 177 227 123 161 224 212 222 120 165 189 192 183 204 
204 191  72  74  38  14  50  83  14  18  50  87  36   9 131  48   8 
 36  56  87  78 207 209 237 161 191 183 194 201 219 206 162 240 153 
135 249 183 185 218 182 255 140 194 218 201 231 218 234 231 186 200 
  0   9  66  33  41  53 101  38   0  65 224 207 155 213 225 188 162 
180 228 189 219 135 203  48  80  23  41 131  84  54  50  51  11 231 
255 185 212 179 233 224 222 255 170 182 224 218 222 146 198 195 210 
192  20  51  78 102  35  59  54   0  42   0  95  69 102  39  78  72 
 98  47 174 251 219 168 213 171 230 189 147 201 212 164 188 176 191 
161 191 197 212 212 224 255 206 179 203 161 173 251 219 147  57  33 
  0  96  63  27  60  23  60   0 128 164 225 161 239 201 198 252 131 
212 194 192 174  60  62  39   0  39  53  59   6  29  59 168 173 239 
233 129 221 179 228 198 228 228 203 216 179 255 153 173 206 245 171 
 62  29  17  47  38  44  42  92  36  51  12  50  26  45   0  23  38 
182 206 170 212 204 216 212 191 194 192 215 186 243 255 185 207 195 
155 213 197 224 218 197 177 221 182 236 236 197 255  63  83  38  23 
  0   0  47  21  81  78  35 222 200 180 152 230 218 186 132 153 213 
227  59  83  33 104  45  93  89  51  66  71  80 246 236 209 242 210 
243 195 221 224 180 236 197 234 239 194 209 174 207 173 192 246  33 
102 104  50  53 101  38  57  41  32  48  45   0 116 108  60 195 215 
216 230 215 186 209 195 221 210 183 149 164 209 218 225 134 177 255 
162 218 185 188 203 206 186 194 230 255 200  36  71 107  35  90  80 
 50  65  29  17  17  32 222 203 218 188 201 194 182 188 231  48  51 
 42  93  47  48 117  56  89  36  32  62 167 222 186 207 206 188 170 
177 246 255 221 219 222 155 156 225 210 230 201 186 149 146  20  36 
  0   5   0 131  54  33  92  78  23  30 111  20  11 252 185 164 210 
200 194 201 204 219 206 236 240 227 144 171 246 197 207 156 176 201 
155 243 194 162 206 188 165 113 198 192  62  72  36 104  86  48  48 
 44  36  81  15  50 230 171 207 197 159 180 240   0  47  66  35  47 
 78  93  47  48   8  77  27 224 176 228 207 198 212 135 228 231 174 
 93 156 200 171 212 150 186 188 255 227 191 212 245 216  56  54  51 
 80 125  47  63  27   0  15  32  53  45 107 179 180 242 236 234 186 
186 170 191 243 186 188 207 240 249 161 243 206 179 174 207 221 255 
228 183 210 210 185 222 162 203  54  98  57  38  15  89   9  14  17 
 81  72  36   3  15  29 212  65  53  33  26  51  23  80  69  84  69 
 80  14  33  69  48 234 206 188 189 239 168 201 215 213 134 209 225 
183 212 255 159 191 225 218 155 209 224 204 206 150  90  33  51  63 
107  59  90  63  42  54  51  47   6 209 195 185 213 224 182 174 182 
191 180 201 212 188 213 237 218 197 200 141 240 203 240 245 213 191 
234 191 170 206 219 192  47  44  35  66  39  50  80  83  29  87  33 
 84 104 102 132  65  99  60  44  18  30  51  41  33  69  50  45  56 
 20  74  54 191 218 144 233 195 230 225 173 201 209 158 140 192 168 
129 215 245 218 218 174 221 164 251 212 207 222  77  59  98  48  78 
 53  32  78  80  23  53  56 206 215 198 209 123 221 195 209 212 197 
200 207 230 227 188 173 218 225 200 170 189 206 252 170 180 213 186 
210 227 174 191 222 107  86  69  57  57  21  99  59  27  66  93   0 
 33  84  27  77  74  39  69  32  69  66  66   0  48  23  45  57  29 
209 255 195 171 170 177 176 192 227 180 183 209 242 198 215 215 195 
197 186 207 210 191 171 119 158 209 162 237  71  65   0  50  36  74 
 65  54  39 102  17 188 219 131 140 228 215 171 201 171 242 224 197 
198 255 218 194 177 192 176 218 170 138 113 137 210 189 188 161 137 
215 207 192 221  38  84  95 104  32  45  18  41  50  62  68  96  51 
 80   9  45  80  62  44  62  84  47  66  45  44   0  36 180 186 242 
200 167 179 201 228 219 215 183 207 204 191 147 159 161 243 212 222 
197 218 197 185 147 188 203 159 198 213  75  75  93  66  32  89  30 
 35  68   6 162 207 237 189 201 215 188 228 246 194 221 221 161 227 
206 216 131 209 243 171 207 227 213 171 255 228 150 195 180 179 236 
204 171 225  50   8  66  77  26  24  99  35  62  56  59  54 110  74 
 33  56  80  99  50  63  47  38  66  57  96 215 180 204 219 173 197 
234 203 242 117 204 210 173 221 215 182 207 194 173 168 182 191 233 
239 180 174 246 200 156 255 135 188  71  23  86  47  66  81  57  69 
 29 168 227 134 171 183 180 183 179 222 225 189 176 218 228 240 165 
150 149 210 255 192 236 216 255 255 209 209 210 210 194 185 219 206 
204  65  18  18  68  48  23  84  26  71  47 132  86  62  41  50  62 
 75  14  27  86  45  96  23  38  44 233 161 150 206 165 194 186 210 
174 201 230 186 173 197 195 230 200 255 162 159 255 228 203 218 255 
222 239 243 234 252 203 153 216  66  48  62  24  42  12  41  62 197 
177 198 195 228 144 185 189 255 179 206 194 215 242 165 225 188 204 
170 198 255 167 213 219 156 224 197 161 162 209 191 237 165 203 186 
185  38  24  75  38  93  54  41  53   0  87  98  47  36  69  51  51 
 18  69  50  84  33 204 200 170 198 192 194 147 140 164 164 212 203 
207 203 158 198 167 236 249 200 233 186 227 225 201 135 239 165 164 
150 180 192 177 189 255 228  71   0  53  60  29  26  18 218 186 179 
180 227 177 174 203 161 182 141 215 201 197 216 249 209 188 222 194 
203 201 209 147 248 230 186 201 183 230 162 155 197 203 210 213 203 
 92  44  87  48  27  29  93  33  39  60  75  33  99  33  26   2  56 
150  39 177 153 216 255 173 210 222 255 165 197 167 197 225 141 164 
186 233 200 173  99 188 207 182 195 176 173 170 228 206 186 201 176 
179 194 237 230 192 173  63  86  44  11 111  74 207 179 215 195 204 
171 206 243 222 206 183 192 222 131 255 179 209 224 213 167 177 179 
210 138 203 228 218 171 216 239 224 188 123 144 122 168 201 200  47 
 87  59  86  24   5  71   0   0  30  57  51  74  53  65   5  47 158 
179 183 198 213 183 255 206 188 191 111 173 227 183 216 204 206 195 
200 204 203 237 174 189 180 171 161 198 180 212 218 255 174 216 168 
215 168 168 192 234  24  20  48  12  68 185 201 171 203 218 228 249 
173 213 240 179 200 191 255 200 221 197 255 200 185 227 200 201 182 
177 203 192 239 215 237 237 234 201 213 200 198 165 155 197 207 198 
  6  50  41  47  50   6  66  84  44  35  90 216 197 147 177 147 162 
198 212 209 185 215 224 194 204 200 195 222 185 192 197 143 225 221 
182 197 200 237 186 173 227 185 231 233 191 225 194 135 198 213 200 
209 186 206 191  32  62  89  26 167 161 221 194 204 110 233 230 188 
236 240 180 189 171 177 209 164 179 200 228 131 239 203 195 164 204 
212 227 197 186 147 197 201 206 222 171 182 227 204 153 162 197 240 
 86 191 221  65 245 206 207 186 186 194 215 171 200 165 161 158 209 
189 248 191 225 135 209 171 234 227 182 209 168 213 213 255 216 167 
219 255 222 150 209 212 248 176 197 228 239 176 227 192 155 162 246 
218 167 219  62  62  47 203 183 164 192 203 242 137 234 185 141 249 
218 203 255 200 204 198 162 242 171 197 173 174 221 182 203 140 216 
177 209 152 195 195 195 201 222 243 195 179 185 179 206 162 239 192 
189 189 201 222 207 195 212 224 164 141 155 230 237 182 237 168 176 
200 176 200 200 188 191 167 233 185 255 164 207 204 248 215 254 192 
180 155 230 255 206 198 170 150 185 156 197 213 183 162 162 255 185 
174 254  12  59 255 197 182 198 233 185 213 197 204 200 213 182 201 
231 216 207 156 228 203 227 242 183 224 206 231 147 204 221 191 176 
209 182 200 222 203 221 204 174 188 191 173 221 225 188 171 171 228 
225 225 231 197 161 200 216 207 149 182 212 242 225 233 212 198 209 
195 180 200 204 212 177 188 153 180 189 230 209 203 200 233 171 255 
189 200 206 182 152 255 213 195 192 209 186 138 212 233 198 132 207 
233 209 231 161 161 212 200 188 228 155 204 198 179 209 245 236 255 
230 198 195 224 122 174 194 176 222 201 177 197 186 197 189 200 171 
230 188 207 195 171 206 210 242 174 198 255 197 173 182 230 176 186 
185 200 179 159 197 113 183 144 221 191 227 195 218 236 255 249 231 
186 176 161 174 227 188 161 228 197 194 218 230 189 158 174 197 189 
189 177 185 197 255 218 200 156 170 213 191 161 182 222 225 228 243 
197 212 153 230 197 210 243 221 174 182 189 188 188 198 168 224 147 
206 215 188 201 206 162 153 180 186 186 215 255 149 189 206 161 206 
204 177 159 182 209 212 174 174 152 198 144 156 188 153 197 197 218 
195 153 200 183 168 189 210 206 213 204 218 126 110 230 167 210 210 
206 233 197 186 173 119 212 188 197 183 203 200 140 182 194 185 174 
132 143 191 221 186 201 176 180 225 210 164 153 189 216 171 192 239 
228 194 216 197 222 201 228 225 212 209 228 204 200 228 188 224 156 
164 225 230 155 197 195 185 213 183 156 231 236 203 210 179 206 255 
216 131 245 176 231 227 147 191 242 233 161 207 164 234 227 174 195 
219 225 141 177 203 234 150 162 167 180 186 231 164 182 212 155 252 
179 212 152 182 171 255 176 168 186 231 147 153 165 168 221 191 231 
209 236 192 210 212 239 198 194 170 243 201 173 162 255 188 185 200 
203 218 237 206 164 195 207 146 191 192 155 198 188 195 165 255 185 
188 152 176 224 186 212 233 161 174 174 197 210 234 237 152 185 213 
221 162 152 227 227  72  77  54  84  14  54  98  66  17  38   0  75 
 24  65  23  47  41  29  69  68  32   8  36  74  33 105  41 108  69 
 56  84  59  32  45  60  15  63  72   0  14  51  12  57 222 170 189 
212 218 176 183 218 174 197 231 189 191 176 171 179 182 201 165 192 
255 218 197 176 194 224 168 206 204 146 185 248 252 201 239 203 212 
209 183 164 222 216 159 173 251 146 162 255 204 179 186 186 224 224 
213 156 176  42  63   0  30 113  42   6  29  62  56  45  39  89  59 
 12  87  33  72  63  11  63  56  12 104  60   0   0  63  83  39  62 
 30  26  38  84  98  27  11  56  39  44   2  54 194 207 165 198 219 
192 167 143 248 179 248 222 159 204 168 218 168 237 174 242 228 155 
153 158 204 137 216 237 212 176 194 195 182 195 227 182 215 195 206 
234 209 180 173 192 182 212 209 240 216 162 171 213 209 221 189 252 
177  17  27  69  93 107  50  93  26   0   0  63  36 128 126  48  23 
 42  80  18  59  21  50  42  68   6   0   0  60  60  78  62  62  45 
 30  62  47  20  14  23   0  57  99  38 198 188 210 162 191 195 180 
218 152 191 201 174 167 150 201 188 228 197 182 209 167 201 185 203 
255 201 225 171 215 176 183 227 200 171 147 179 201 138 191 242 246 
255 179 195 210 188 194 194 177 156 194 180 215 206 168 224 219  45 
  9  53  38  15  93  98  12  48  66  65 102  75   0  41  39   9   0 
 65  35  17  27  38  95  81  57  51  32  93  42  68  26  30  75  92 
105  26  56  83 102  26  11  35 249 222 198 197 194 180 158 204 212 
255 191 195 242 186 218 206 206 165 255 237 192 206 131 180 210 246 
255 246 213 230 204 219 189 222 219 234 182 245 212 143 200 162 207 
185 209 209 182 194 240 191 170 194 249 192 224 186 143  20   0  62 
 56  15  24  47  69  17  36  39 116  68 102  98  23  17  74  27  65 
 56  83  17  71  26  84  56  30 120  56  95  48  27 105  62   6  66 
 45  21  69  26  50  45 194 206 212 185 183 185 176 180 254 198 161 
195 210 182 248 240 165 173 156 218 203 209 186 225 201 153 221 150 
206 149 158 218 245 209 189 194 192 185 230 198 216 209 194 222 143 
201 165 164 195 227 191 183 176 123 189 188 177 110  56   0  26  35 
102  39  63  57  59  68  44  48  69  56  48  75  30  48  33  57  86 
 35  21  39  38  27  38   0  18  41  51  56  11   0  17 102  60  50 
 47  77  36  35 255 185 179 197 198 201 180 206 218 198 242 240 195 
221 240 158 246 150 167 185 215 192 162 177 173 213 251 188 179 240 
218 195 183 216 200 156 179 159 158 225 246 165 219 185 156 195 213 
173 230 126 197 246 182 173 206 243 216  17   3 129  14 122  39  12 
107  44  72  11  59  62  51  26  38  51   0  14  44  72  65  62  32 
  0  90  29   0  36  78  81  17  47  59  21  98   8 140  59  81  42 
 75  30 218 200 224 161 215 215 155 173 218 174 222 194 237 209 212 
186 170 222 186 204 185 221 204 195 182 200 192 153 234 183 170 204 
177 198 179 194 168 179 194 138 131 212 174 192 255 156 176 183 255 
228 255 207 183 233 239 152 206  14  42  11  33  65 110  45   0  47 
 53  15  80  29  23  72 105   3   0  48  83  21   0  30 143  30   0 
 47  35  66  50 104   0  99  68  69   0  14  54  29  45  90  75   0 
176 207 192 189 200 225 165 186 216 170 195 140 191 138 137 158 201 
255 195 216 161 159 185 212 155 203 183 194 180 218 237 251 236 203 
179 218 201 171 201 185 216 173 228 177 197 194 176 236 180 198 237 
215 162 183 168 213 170  68  57  12 113  27  60  62  41  39  75  26 
 60  24  54  78  27   0   6  41  30  39 218 104  48  18  21  24  17 
 27  39  26  86  21  57  56  27  57 105  42 102  27  66  27 164 188 
206 213 224 188 165 191 183 239 216 173 195 201 194 203 195 210 189 
201 221 225 207 173 212 248 224 203 177 219 150 146 177 224 156 194 
252 216 218 189 237 255 218 161 194 161 246 240 207 255 204 185 197 
183 222 162 156  66  89  81  90 116  35   0  21  51  72  21  45  69 
 36 114  98 125 224 176 167 218 242 179 215 248 195 173  42   0  96 
 71  45  99  57  27  60  62  44  72  38  78  65  80 236 194 200 230 
222 198 189 143 194 227 203 171 173 180 191 179 248 200 180 210 168 
222 200 213 176 225 177 194 155 219 234 209 234 206 173 237 173 192 
236 224 189 156 227 249 176 218 204 198 242 171 218 204 197 204 255 
156 146  36  77  15  63  42  29  66  54  36  33  68  60 155  24 215 
198 182 158 192 182 189 177 210 242 225 212 239 198 135  78  65  84 
 90  90  45  35  65  41  60  12  65  42  63 227 197 164 158 200 237 
143 167 197 189 203 144 186 159 224 239 122 201 230 204 105 185 152 
158 242 224 174 227 173 224 248 243 207 185 179 251 221 248 159 168 
240 197 219 224 182 159 227 239 155 255 204 218 149 135 195 171 210 
 86  21  80  26  51  80  41  51  57  47  69  15 182 204 239 207 215 
189 197 152 197 153 180 200 221 185 255 239 239 186 171  44 108  38 
 78  90  42  32  38  20  21  29  56 159 215 173 246 167 225 173 215 
189 197 189 176 200 194 176 233 146 189 152 168 201 216 177 243 207 
221 209 245 155 191 182 221 173 216 239 227 209 171 227 185 218 198 
188 191 201 174 248 255 182 237 158 246 215 240 189 254 194 110   0 
 80  60  78  78  84   0  36  50  66 203 245 206 222 176 177 233 207 
189 186 206 233 221 192 185 179 197 204 210 186 200  42  41  81  29 
  0   8  39  54  63 104  15 209 191 219 209 170 233 180 212 195 203 
243 176 170 234 188 227 189 215 180 170 225 207 216 204 230 155 227 
183 107 233 174 216 221 138 170 191 191 218 168 231 225 255 188 194 
204 189 218 171 249 161 197 173 234 128 189 222 213  95  42  78  54 
 62  83  39  18  35  56 192 213 204 212 183 183 236 234 219 233 216 
188 186 182 231 189 237 161 159 186 198 210 189  27  74  47   0  66 
  0  32   8  81  24 218 177 192 227 194 186 224 206 180 134 215 158 
203 176 183 255 150 249 242 218 222 147 174 189 150 239 227 174 245 
249 204 242 216 212 155 216 161 213 213 150 153 203 173 195 200 233 
183 212 185 233 195 182 176 197 225 216 216  47  72  69  56  53  23 
 60  32  26 188 189 219 228 209 177 249 213 210 170 221 201 212 161 
162 251 204 167 185 177 179 233 170 194 191  26  71  60   6  54   0 
 26   3  33 183 207 200 210 231 239 230 242 213 159 186 191 197 252 
222 246 179 213 219 203 189 233 203 204 237 152 224 176 255 195 177 
195 248 218 197 195 201 179 179 255 182 197 204 189 159 198 201 249 
209 198 222 140 191 204 219 219 189  86  78  32  57  17  15  71   9 
233 248 164 221 194 216 240 231 224 191 216 243 192 237 173 225 222 
216 227 198 203 234 240 210 198 188 179  33  42   8 108  21   6  30 
 66 197 228 242 206 171 249 189 156 228 197 201 252 170 156 210 135 
174 231 225 161 231 248 219 215 234 231 210 186 227 194 197 164 215 
255 194 213 206 191 180 177 218 203 201 194 215 210 201 206 218 177 
158 176 216 203 225 143 230  83  45  89  53  30  84  41  51 177 194 
198 237 218 219 189 170 210 197 200 255 191 188 192 237 179 188 255 
188 185 240 248 246 174 209 188  96  38   0  56  95  60 102   0 171 
165 222 185 188 143 161 192 255 218 194 230 174 168 210 209 179 185 
206 146 195 216 203 206 221 191 186 138 141 138 197 215 167 176 189 
168 201 173 239 155 194 198 200 144 200 204 239 200 174 203 234 197 
213 212 194 243 185  26  89   0  68  29  17  65  59 191 225 240 228 
200 227 138 174 233 182 224 173 213 173 200 245 186 225 159 204 221 
173 179 135 176 191 194  41   0  47  20  12  89  54  30 215 206 218 
155 239 171 222 213 206 174 176 207 219 135 249 194 240 156 162 243 
191 237 209 255 231 146 182 185 195 195 192 209 219 224 191 192 183 
188 215 233 239 237 198 182 152 201 200 210 150 194 228 174 239 182 
251 161 239  56   0  72  83  74  39  26 188 248 215 185 234 240 177 
201 174 221 189 168 227 189 222 210 203 162 177 200 164 192 125 216 
215 213 222 204 216  78  27  81 116  80  57  77 180 191 255 186 171 
165 192 155 201 159 228 221 207 159 191 192 210 194 173 168 204 212 
225 197 186 188 185 204 213 209 183 233 228 188 212 143 171 255 183 
203 167 197 255 186 189 192 237 201 209 251 186 140 209 204 198 131 
183 107  60  48  38  23  57  63 192 183 222 138 183 255 221 206 179 
219 242 171 165 221 213 125 204 180 168 146 189 228 198 225 171 191 
135 198 236  27  41   0   5  48  56  63 173 231 186 221 176 155 129 
201 227 207 203 218 167 200 195 177 170 206 215 218 149 207 225 255 
164 153 176 212 171 194 189 248 234 231 189 209 170 248 200 237 198 
165 164 165 183 233 236 191 210 191 144 228 197 165 168 216 209 105 
102  47  57  38  21  53 171 177 197 182 167 198 144 191 191 176 182 
222 242 224 171 227 164 219 216 210 182 239 182 242 219 228 188 174 
207  71  54  56  42   0  47  87 204 230 177 198 227 188 143 140 137 
236 185 249 189 183 158 147 215 203 150 218 251 194 251 191 179 195 
188 236 221 234 198 159 219 216 185 210 179 240 219 177 204 213 198 
197 203 203 231 242 203 216 224 182 179 209 153 176 219  44  51  65 
 74  71 114  27 209 183 198 224 146 174 192 254 224 150 153 170 143 
212 192 171 213 188 158 183 186 194 239 218 182 188 222 188 194  20 
 59 110  44  81  81   0 206 168 197 168 237 203 231 198 255 180 203 
195 174 189 215 216 194 246 240 180 210 233 201 213 146 168 195 171 
168 215 207 222 143 230 228 212 225 189 174 225 149 224 212 203 221 
230 245 228 191 149 255 153 228 201 188 182 225  78   0   3  54   0 
108  51 207 210 179 218 213 173 173 164 180 237 197 183 240 188 230 
206 153 201 174 216 206 182 185 216 204 152 203 255 200  44  21  54 
134  89  29  17 213 161 222 255 245 218 161 215 174 200 224 255 213 
176 191 239 198 201 179 168 189 255 243 176 186 251 201 174 159 203 
228 255 195 161 207 210 173 171 213 219 222 156 144 210 177 182 177 
209 185 203 227 183 236 224 233 201 189  59   8  83  92  38  77  33 
 30 183 212 225 185 248 177 189 230 192 173 222 239 216 168 158 179 
210 177 210 255 192 198 218 246 213 201 209   0  36  11  89  93  68 
 74  44 197 140 162 255 167 218 228 203 248 185 162 255 116 195 192 
201 237 219 135 207 245 183 219 185 179 167 251 191 215 255 213 165 
182 213 189 242 180 204 212 222 185 183 216 215 207 203 198 245 254 
194 255 195 156 213 201 230 189  12  36  59  72  38  15  26  74 221 
216 255 173 143 212 204 234 137 210 201 255 186 147 173 242 221 218 
221 176 245 182 197 188 245 203 165 108   5  83  62   3  18  51  21 
242 176 201 197 182 225 162 213 219 243 143 201 201 255 218 189 201 
159 222 224 180 186 200 216 195 249 186 207 207 180 215 255 188 170 
255 227 183 159 218 162 228 230 209 218 197 203 183 239 230 192 171 
186 204 234 255 170 176  50  68  60  27  20  87  81  59 237 222 173 
221 219 158 204 200 216 209 207 251 144 215 131 185 176 171 231 185 
185 198 240 200 161 222 164  48  32  47  42  69  21   8  38 180 174 
168 203 231 179 162 224 219 170 239 192 198 228 207 251 219 176 194 
186 198 203 230 197 152 209 177 164 245 224 185 210 168 231 203 174 
215 218 171 164 201 227 194 198 183 120 231 255 155 155 179 168 191 
204 215 209 179  90  32  36  72  18  30  42  33   6 210 230 207 192 
192 210 209 207 177 156 200 227 140 225 177 192 216 179 174 173 225 
194 255 147 252  75  51  48  33  77 122  38  38  65 201 188 204 216 
228 149 200 173 152 204 255 218 183 227 248 242 218 173 186 171 219 
242 186 228 149 158 173 233 212 222 182 186 236 182 231 188 153 176 
117 201 224 215 197 221 239 156 227 170 186 210 210 207 174 194 207 
149 216  32  71  41   5  14  54  83  74  42  59 162 164 173 194 234 
171 239 200 242 188 206 185 255 213 221 125 209 146 173 188 138 210 
221  57  84  30  26  32  80  74  11  24  12 206 240 195 237 222 162 
180 209 198 195 197 204 144 215 176 210 212 156 233 197 168 182 216 
225 153 230 185 182 207 170 210 179 219 230 203 201 186 204 228 242 
194 231 207 252 255 192 212 255 207 167 209 231 180 243 252 179 195 
 36  63  87  41  44  18  39  32   9  74 101 228 245 221 195 164 195 
180 212 191 182 242 144 210 155 200 221 177 242 234 188 191  26  60 
 51  72  17   0  69  24  33  38  72 194 161 212 239 164 179 198 183 
206 206 165 164 186 180 156 218 222 237 221 200 233 182 237 203 189 
231 140 255 210 188 186 233 210 228 234 147 201 167 216 207 200 189 
159 213 186 255 197 200 239 230 255 198 174 213 161 168 201  83  11 
 83  29  48  87 105  66  83  66  89  27 144 239 210 186 255 237 179 
255 185 215 176 230 212 195 200 245 216 171 203  65  32  78  50   0 
 45  72  29  47  93  75  41 182 195 225 233 204 236 203 182 255 200 
219 212 189 224 231 197 230 179 231 200 228 227 216 198 165 156 189 
215 209 233 255 210 150 206 126 228 197 203 216 194 144 245 212 204 
204 192 194 173 203 200 216 209 197 143 165 204 219   0  87   3  32 
 12  27  75  80  12  90  38  38  80  75 207 204 234 188 164 224 227 
222 222 216 183 216 176 215 228  56  68  44  48 108  92   0  20  75 
  9  18  39  57  50 174 210 215 213 216 209 197 168 152 236 176 233 
162 207 219 189 197 239 141 225 230 171 248 185 218 201 236 209 248 
122 198 149 221 182 255 162 242 255 225 164 209 197 182 191 197 224 
201 155 201 239 197 206 255 183 189 191 215 210 155 239 162 165 177 
191 215 233 168 182 246 212 222 168 189 171 218 164 212 255 189 182 
195 161 201 179 201 162 216 167 140 189 212 222 177 170 218 228 194 
224 215 219 216 203 218 192 177 131 189 228 210 141 164 234 227 188 
210 191 207 158 176 234 204 236 206 207 233 219 239 167 177 182 180 
201 168 164 242 164 206 230 186 237 189 191 228 176 203 212 185 198 
204 216 236 200 240 180 210 143 213 236 222 207 171 201 209 228 198 
195 255 165 255 225 203 218 176 167 209 146 147 215 204 186 165 245 
221 210 192 222 182 206 165 159 180 167 212 180 158 146 197 206 209 
215 236 204 195 167 215 255 197 173 243 188 182 206 207 225 195 216 
188 224 183 207 204 164 224 149 153 222 165 191 180 210 195 179 198 
183 153 158 215 251 167 230 182 209 249 185 174 182 228 206 218 156 
182 201 174 153 188 167 153 189 174 197 156 200 200 203 209 189 219 
209 204 245 225 197 189 170 180 230 173 210 240 204 255 234 242 233 
209 173 176 161 213 236 192 255 140 207 224 185 168 236 219 212 212 
149 189 201 255 231 167 203 200 212 155 255 171 194 171 132 159 200 
228 179 176 221 206 192 170 168 201 156 227 201 221 243 159 198 230 
177 212 198 216 200 201 207 255 144 177 164 200 206 209 188 201 222 
186 200 132 213 204 233 254 165 213 189 164 198 189 180 206 255 192 
249 200 222 249 191 180 161 209 192 188 236 218 173 225 170 176 183 
212 221 236 206 194 156 164 222 165 207 173 222 233 204 161 201 197 
159 225 198 233 228 213 176 177 188 186 240 225 203 222 173 207 171 
215 206 222 180 170 164 216 201 125 177 242 201 165 240 203 213 129 
158 167 219 158 212 206 246 246 252 221 185 194 179 216 185 183 255 
206 176 171 203 209 207 212 209 194 185 158 158 213 182 197 210 189 
254 204 201 194 188 218 198 248 173 206 219 224 236 197 242 177 195 
189 204 233 171 200 168 230 174 191 192 144 168 219 144 158 218 207 
209 237 239 209 218 182 188 222 203 134 164 165 221 174 180 107 129 
228 140 174 188 201 189 215 162 174 179 203 197 197 242 189 168 242 
164 255 188 203 149 140 201 201 219 192 210 206 227 224 221 240 195 
210 189 207 255 176 231 189 197 135 243 203 188 231 180 221 194 192 
201 213 135 242 236 242 185 150 188 198 194 189 188 179 233 192 224 
255 191 246 186 236 195 236 224 200 242 174 225 237 246 185 164 245 
207 242 167 188 230 171 239 182 215 204 215 198 216 242 201 209 255 
252 227 215 182 200 167 197 191 245 251 191 212 167 240 224 236 189 
165 237 209 222 176 186 174 206 197 189 225 200 164 234 227 135 191 
203 198 156 212 159 209 197 194 221 180 192 233 237 143 153 201 213 
206 192 243 245 177 204 206 171 198 254 195 219 188 177 203 225 170 
171 239 183 153 224 209 255 183 174 201 156 162 224 162 153 209 206 
174 224 210 189 204 195 185 209 159 230 216 140 188 213 245 188 204 
234 218 164 255 221 174 197 168 228 188 135 174 180 245 219 245 200 
197 180 218 185 210 183 186 152 210 206 174 195 239 171 201 248 207 
204 210 206 218 240 152 201 225 156 186 185 149 188 255 174 179 209 
212 219 195 147 198 198 219 179 227 197 213 210 224 207 209 182 162 
123 224 195 231 224 189 162 179 161 191 174 203 242 230 195 204 212 
150 239 200 207 194 203 195 188 233 179 200 182 207 191 207 210 248 
198 179 161 249 207 218 200 216 255 212 233 170 198 183 222 179 213 
255 204 191 174 222 215 212 200 201 201 189 188 167 168 195 186 161 
171 201 210 161 192 176 168 236 252 210 209 189 132 177 185 197 221 
191 161 182 233 204 177 131 227 224 179 179 188 176 222 162 159 143 
192 146 219 255 128 227 182 255 210 245 210 179 231 176 185 237 159 
236 165 134 255 233 192 158 212 203 242 141 234 218 158 192 180 114 
219 146 197 246 228 224 182 194 156 207 152 173 254 231 185 212 177 
200 194 207 174 173 173 176 189 249 183 197 188 192 228 189 219 188 
186 179 198 188 194 165 212 242 207 191 123 186 230 218 233 173 221 
171 198 245 204 183 197 197 185 180 164 255 255 237 206 203 170 180 
186 155 132 144 162 234 242 164 255 212 216 228 192 216 191 206 179 
236 194 171 185 141 206 194 224 144 200 167 182 225 182 225 206 189 
218 165 152 167 147 204 200 137 209 224 183 237 224 200 237 255 194 
191 168 255 245 182 206 222 201 164 216 213 255 171 161 218 201 213 
216 179 171 194 218 206 156 170 221 230 255 191 192 189 200 228 158 
200 224 149 177 219 204 179 191 197 170 189 225 227 188 197 156 203 
198 212 255 201 183 188 180 167 222 192 240 186 200 215 191 207 191 
231 153 200 218 144 189 243 150 188 164 206 218 191 231 222 174 210 
255 228 252 201 171 189 237 239 164 212 207 162 179 222 204 245 197 
189 249 255 216 203 207 210 221 210 171 234 246 233 186 191 188 231 
165 176 183 192 255 158 176 245 153 176 191 206 194 182 195 239 222 
191 195 237 198 144 203 203 161 177 236 198 198 201 179 188 195 144 
255 174 201 222 225 155 177 180 245 170 174 125 230 227 159 255 182 
198 201 176 177 212 197 255 170 218 203 215 159 210 158 225 213 182 
210 212 186 240 207 192 225 221 173 192 255 191 188 207 174 209 174 
197 255 216 159 203 206 198 159 173 227 177 206 201 255 161 254 251 
198 197 209 233 183 210 197 153 207 194 230 183 188 251 203 152 116 
167 245 213 227 215 209 252 222 194 198 249 204 159 177 218 213 174 
251 167 242 212 195 216 188 227 176  96 213 189 212 156 173 161 192 
213 174 219 228 219 236 192 182 212 198 174 216 162 236 213 254 218 
243 165 207 191 209 219 174 237 197 204 206 224 222 203 212 195 176 
162 149 189 173 198 155 225 176 171 171 191 203 234 179 219 225 207 
251 239 225 201 179 155 200 182 195 177 194 227 210 215 228 152 237 
201 216 207 255 222 210 179 204 198 155 126 215 227 233 167 155 213 
203 197 131 240 207 242 209 173 195 198 165 177 180 179 189 207 234 
191 177 227 221 228 180 200 198 236 195 204 221 149 188 203 218 173 
194 156 228 216 182 210 213 189 200 254 164 150 231 197 191 221 215 
201 192 216 203 146 185 218 194 174 231 203 170 237 218 200 149 255 
218 192 197 197 203 233 180 230 255 209 167 209 209 156 173 212 164 
170 237 231 213 185 255 201 180 210 201 161 215 255 239 204 210 255 
242 216 180 176 215 237 195 201 248 165 201 167 245 210 128 185 200 
234 236 165 185 